<?xml version="1.0" standalone="no"?>
<!DOCTYPE svg PUBLIC "-//W3C//DTD SVG 20010904//EN"
 "http://www.w3.org/TR/2001/REC-SVG-20010904/DTD/svg10.dtd">
<svg version="1.0" xmlns="http://www.w3.org/2000/svg"
 width="235.000000pt" height="235.000000pt" viewBox="0 0 235.000000 235.000000"
 preserveAspectRatio="xMidYMid meet">
<metadata>
Created by potrace 1.11, written by Peter Selinger 2001-2013
</metadata>
<g transform="translate(0.000000,235.000000) scale(0.100000,-0.100000)"
fill="#000000" stroke="none">
<path d="M1018 2255 c-1 -1 -30 -6 -63 -9 -33 -4 -71 -8 -85 -10 -14 -2 -45
-7 -70 -10 -52 -8 -258 -54 -280 -63 -8 -3 -24 -8 -35 -10 -11 -2 -45 -13 -75
-24 -30 -11 -64 -22 -75 -24 -11 -3 -29 -9 -40 -15 -30 -14 -79 -33 -90 -34
-7 -1 -10 -246 -11 -711 -1 -677 0 -711 17 -734 11 -13 19 -21 19 -17 0 4 10
-3 23 -16 40 -42 199 -158 216 -158 5 0 11 -3 13 -7 4 -10 105 -71 183 -111
77 -40 184 -91 190 -91 3 -1 22 -8 43 -17 20 -9 42 -17 47 -18 6 -1 20 -7 32
-14 12 -7 26 -12 30 -11 4 1 24 -5 43 -14 19 -8 38 -13 42 -11 5 3 8 0 8 -6 0
-6 4 -9 9 -5 5 3 12 1 16 -5 4 -6 11 -8 16 -5 5 4 9 2 9 -4 0 -11 29 -7 57 7
10 6 20 10 23 10 23 2 254 94 359 143 57 27 107 49 111 49 4 0 11 7 14 16 3 8
10 13 15 10 5 -3 14 1 21 9 7 8 17 15 22 15 11 0 100 59 109 73 3 5 10 8 15 8
5 -1 17 6 27 14 9 8 22 15 27 15 6 0 10 5 10 10 0 6 5 10 11 10 12 0 77 49
134 102 l40 37 0 708 1 708 -36 18 c-19 10 -82 34 -140 53 -58 19 -112 38
-120 41 -8 3 -22 7 -30 8 -8 1 -55 12 -105 25 -49 12 -103 24 -120 26 -16 2
-41 6 -55 9 -14 3 -45 8 -70 11 -25 3 -56 7 -70 10 -27 6 -376 14 -382 9z
m382 -169 c14 -3 43 -7 65 -10 128 -14 349 -68 470 -113 l50 -19 3 -317 c1
-174 -1 -317 -4 -317 -4 0 -44 38 -88 83 -88 91 -150 138 -252 192 -63 33
-188 81 -236 90 -13 3 -36 7 -51 11 -92 20 -280 19 -377 -1 -119 -25 -121 -25
-156 -40 -19 -8 -34 -12 -34 -10 0 4 -91 -42 -152 -77 -60 -34 -139 -98 -199
-160 -36 -37 -71 -68 -77 -68 -8 0 -11 90 -12 305 0 281 1 305 17 313 33 18
251 80 350 101 162 35 316 48 493 45 91 -2 176 -5 190 -8z"/>
</g>
</svg>
